<svg xmlns="http://www.w3.org/2000/svg" viewBox="0 0 486.929 86.863"><defs/><defs><linearGradient id="a" x1="0" x2="1" y1="0" y2="0" gradientTransform="rotate(45 129.703 305.234) scale(162.62366 -162.62341)" gradientUnits="userSpaceOnUse" spreadMethod="pad"><stop offset="0" stop-color="#00a650"/><stop offset=".16" stop-color="#00a650"/><stop offset=".26" stop-color="#00adef"/><stop offset=".4" stop-color="#00adef"/><stop offset=".52" stop-color="#ed1c24"/><stop offset=".69" stop-color="#ed1c24"/><stop offset=".84" stop-color="#fff200"/><stop offset="1" stop-color="#fff200"/></linearGradient><clipPath id="b" clipPathUnits="userSpaceOnUse"><path d="M0 105.362h398.212V0H0z"/></clipPath></defs><path fill="url(#a)" d="M362.202 87.86c-48.61-.003-63.091-60.187-109.34-61.24 29.669-12.383 46.051 7.234 65.685 26.853 16.555 16.541 35.419 33.082 66.509 30.44-8.423 2.743-15.974 3.947-22.846 3.947h-.008m-70.634-61.974c37.111 4.021 35.026 35.176 72.351 39.442-2.62.386-5.093.566-7.445.566-29.779-.002-39.351-29.046-64.906-40.008m-47.513 17.222c-2.208 0-4.375-.968-6.811-3.622 3.702 1.588 5.503-1.019 8.33-3.626 3.898-3.595 9.747-7.19 25.223.21-7.265-.362-12.529 1.567-16.787 3.497-3.908 1.77-6.968 3.541-9.953 3.541h-.002" transform="matrix(1.33333 0 0 -1.33333 -26.479 117.147)"/><g clip-path="url(#b)" transform="matrix(1.33333 0 0 -1.33333 -26.479 117.147)"><path fill="#2775b0" d="M19.859 48.964v26.164h13.66l17.119-19.92-.226 19.92h8.143V48.964H44.76l-16.878 19.69.233-19.69zm46.013 26.164h8.595V48.964h-8.595zm12.596-26.164l15.876 26.164h11.515l15.439-26.164h-9.405l-2.802 4.668H90.865l-2.681-4.668zm15.516 10.12h12.172l-6.167 10.46zm67.062 7.218h-8.411c-.085 1.896-1.25 2.864-3.493 2.903h-5.25c-.91.013-2.025.006-3.351-.02l-2.731-.04c-1.538 0-2.653-.208-3.324-.627-.825-.51-1.305-1.444-1.425-2.798-.085-.91-.127-2.321-.127-4.25 0-2.412.212-3.994.642-4.746.663-1.177 2.293-1.804 4.904-1.895.367-.014 2.59-.02 6.654-.02 2.343 0 3.783.026 4.305.078 1.17.112 2.01.399 2.51.85.502.45.756 1.216.756 2.289 0 .163-.007.424-.021.784h-10.902v4.903h19.264v-3.628c0-2.93-.148-5.021-.437-6.29-.728-3.21-3.36-4.871-7.896-4.988-1.024-.026-4.615-.04-10.775-.04-4.03 0-6.936.067-8.73.19-4.282.308-6.97 1.87-8.043 4.695-.578 1.516-.868 4.19-.868 8.02 0 4.264.346 7.219 1.038 8.867.853 2.04 2.582 3.373 5.186 4 2.067.497 6.343.746 12.82.746 5.032 0 8.44-.066 10.218-.196 3.987-.347 6.35-1.876 7.092-4.596.26-.955.395-2.354.395-4.191m3.33-17.338l15.877 26.164h11.516l15.438-26.164H197.8l-2.8 4.668h-18.227l-2.681-4.668zm15.517 10.12h12.172l-6.167 10.46zm31.216-10.12v26.164h24.379c2.809 0 4.834-.144 6.055-.438 2.237-.543 3.712-1.667 4.43-3.38.495-1.19.742-2.765.742-4.726 0-3.145-.797-5.244-2.4-6.297-.853-.562-2.681-1.026-5.482-1.4.332-.025.798-.051 1.404-.077 2.018-.092 3.366-.333 4.044-.726 1.369-.791 2.053-2.452 2.053-4.988v-4.132h-8.721v3.249c0 1.962-.748 3.04-2.252 3.243-.472.066-1.297.098-2.483.098h-13.216v-6.59zm8.553 12.984h13.448c1.779 0 2.957.11 3.522.327.967.373 1.446 1.249 1.446 2.634 0 1.667-.324 2.726-.973 3.19-.551.4-1.778.596-3.684.596h-13.76zm30.73-12.984l15.876 26.164h11.515l15.439-26.164h-9.405l-2.802 4.668h-18.226l-2.681-4.668zm15.516 10.12h12.172l-6.167 10.46z"/><path fill="#7b817e" d="M19.904 39.787h3.041V28.431h-3.041zm-.045 4.292h3.13v-2.66h-3.13zm8.137-4.292v-1.029c.298.433.701.783 1.207 1.051.507.268 1.111.402 1.811.402 1.148 0 1.96-.372 2.437-1.117.477-.745.723-1.923.737-3.532v-7.131h-3.04v6.572c-.015 1.177-.134 1.96-.357 2.347-.224.388-.567.582-1.029.582-.551 0-.965-.235-1.241-.705-.275-.469-.413-1.27-.413-2.403v-6.393h-3.04v11.356zm13.927 0v-2.28h-2.034v-9.076h-3.04v9.076h-1.655v2.28h1.655v1.43c0 1.029.279 1.785.838 2.269.559.485 1.457.727 2.694.727l.715-.056c.283-.022.566-.055.849-.1v-2.303a7.138 7.138 0 01-.614.123 3.689 3.689 0 01-.548.056c-.298-.016-.525-.12-.682-.313-.156-.194-.227-.522-.212-.984v-.849zm1.006 0h3.041V28.431h-3.041zm-.045 4.292h3.13v-2.66h-3.13zm8.138-4.292v-1.029c.298.433.7.783 1.207 1.051.507.268 1.11.402 1.811.402 1.147 0 1.96-.372 2.436-1.117.477-.745.723-1.923.738-3.532v-7.131h-3.04v6.572c-.015 1.177-.134 1.96-.358 2.347-.224.388-.566.582-1.028.582-.552 0-.965-.235-1.241-.705-.276-.469-.414-1.27-.414-2.403v-6.393h-3.04v11.356zm8.249 0h3.041V28.431h-3.041zm-.045 4.292h3.13v-2.66h-3.13zm4.136-6.572v2.28h1.654v3.398h3.04v-3.398h1.945v-2.28h-1.945v-5.455c-.014-.656.048-1.077.19-1.263.142-.186.384-.28.727-.28.119 0 .272.023.458.068.186.045.376.111.57.201v-2.325a18.344 18.344 0 00-1.285-.235 8.014 8.014 0 00-1.13-.1c-.849 0-1.49.219-1.922.659-.432.439-.648 1.323-.648 2.649v6.081zm14.15-5.79h3.041c-.283-1.252-.813-2.184-1.588-2.795-.775-.611-1.87-.916-3.286-.916-1.714.015-2.984.533-3.811 1.554s-1.234 2.544-1.219 4.571c0 1.908.47 3.398 1.409 4.471.939 1.073 2.22 1.609 3.845 1.609 1.654 0 2.872-.555 3.655-1.665.782-1.11 1.181-2.656 1.195-4.639v-.625h-6.974c-.015-.984.138-1.729.458-2.236.321-.507.846-.76 1.576-.76.507 0 .887.119 1.14.358.254.238.44.596.559 1.073m-3.733 3.465h3.845c-.045.968-.205 1.669-.481 2.101-.275.432-.719.649-1.33.649-.626 0-1.118-.246-1.475-.738-.358-.492-.544-1.163-.559-2.012m13.726 4.605h2.861v-1.364h.067c.164.552.473.988.928 1.308.454.32 1.062.48 1.822.48 1.296 0 2.336-.528 3.118-1.587.783-1.058 1.174-2.571 1.174-4.538 0-1.848-.372-3.323-1.118-4.426-.745-1.103-1.818-1.654-3.219-1.654-.506 0-.984.089-1.43.268a3.035 3.035 0 00-1.163.827v-6.348h-3.04zm2.906-5.656c0-1.281.172-2.243.514-2.884.343-.641.827-.961 1.453-.961.671 0 1.166.336 1.487 1.006.32.67.48 1.617.48 2.839 0 1.282-.182 2.232-.547 2.85-.366.619-.839.936-1.42.951-.596-.015-1.073-.332-1.431-.951-.357-.618-.536-1.568-.536-2.85m13.234-6.125c-1.699 0-2.98.555-3.845 1.665-.864 1.11-1.289 2.597-1.275 4.46 0 1.833.426 3.305 1.275 4.415.849 1.11 2.131 1.665 3.845 1.665 1.699 0 2.973-.555 3.823-1.665.849-1.11 1.282-2.582 1.297-4.415-.015-1.863-.452-3.35-1.308-4.46-.857-1.11-2.128-1.665-3.812-1.665m0 2.28c.641 0 1.133.298 1.476.894.342.596.514 1.58.514 2.951-.015 1.327-.191 2.291-.526 2.895-.335.604-.823.906-1.464.906-.656-.015-1.151-.321-1.486-.917-.336-.596-.504-1.557-.504-2.884 0-1.371.168-2.355.504-2.951.335-.596.83-.894 1.486-.894m12.542 5.175l-1.364-7.03h-3.13l-2.951 11.356h3.257l1.393-7.139 1.334 7.139h2.92l1.334-7.049 1.372 7.049h3.278l-2.951-11.356h-3.129zm14.262-3.744h3.04c-.283-1.252-.813-2.184-1.588-2.795-.775-.611-1.87-.916-3.286-.916-1.714.015-2.984.533-3.811 1.554s-1.233 2.544-1.219 4.571c0 1.908.47 3.398 1.409 4.471.939 1.073 2.22 1.609 3.845 1.609 1.654 0 2.872-.555 3.655-1.665.782-1.11 1.181-2.656 1.196-4.639v-.625h-6.975c-.015-.984.138-1.729.459-2.236.32-.507.846-.76 1.576-.76.506 0 .886.119 1.14.358.253.238.439.596.559 1.073m-3.734 3.465h3.846c-.045.968-.206 1.669-.481 2.101-.276.432-.72.649-1.33.649-.626 0-1.118-.246-1.476-.738-.357-.492-.544-1.163-.559-2.012m15.067 5.029v-2.324a2.34 2.34 0 01-.313.022c-.104 0-.282.008-.536.023-.998 0-1.695-.369-2.09-1.107-.395-.738-.585-1.986-.57-3.744v-4.65h-3.041v11.356h3.041v-1.475c.238.655.607 1.132 1.106 1.43.499.299 1.144.454 1.934.469z"/></g></svg>