<svg width="289" height="206" viewBox="0 0 289 206" fill="none" xmlns="http://www.w3.org/2000/svg">
<g clip-path="url(#clip0)">
<path d="M179.55 148.78V51.8799C179.55 47.1799 183.36 43.3799 188.05 43.3799H205.29V148.79H179.55V148.78Z" fill="white"/>
<path d="M205.29 43.3803L183.99 31.8103C181.25 30.3203 179.55 27.4603 179.55 24.3403V5.07031H205.29V43.3803Z" fill="white"/>
<path d="M215.11 43.3799V64.2599H232.95V148.78H258.29V64.2599H286.46V43.3799H258.29H232.95H215.11Z" fill="white"/>
<path d="M272.07 20.88C278.76 20.88 283.42 21.49 288.69 22.5V2.23C280.79 0.61 276.12 0 268.83 0C250.48 0 238.23 8.93 234.22 22.64C233.12 26.42 234.87 30.45 238.31 32.35L258.29 43.38V33.65C258.29 26.15 262.95 20.88 272.07 20.88Z" fill="white"/>
<path d="M68.7203 148.78V48.4697C68.7203 45.3297 66.9903 42.4497 64.2303 40.9697L42.5703 29.3896V148.78H68.7203Z" fill="white"/>
<path d="M0 5.07031V29.3903H42.57H68.72H111.29V5.07031H0Z" fill="white"/>
<path d="M166.69 62.2302C160.61 46.4202 145.2 40.7402 127.16 40.7402C103.65 40.7402 84.7903 51.2802 83.3803 75.0002H107.91C108.52 65.2702 115.41 60.0002 127.17 60.0002C141.55 60.0002 145 66.6902 145 76.6202V83.1102L113.99 85.3402C93.9203 86.7602 78.3203 98.3102 78.3203 118.38C78.3203 135.61 91.2903 151.42 116.43 151.42C131.43 151.42 143.59 144.12 148.46 135.61V148.79H166.3C167.61 148.79 168.74 148.88 169.75 148.79V125V83.5102C169.73 76.4202 169.33 68.9202 166.69 62.2302ZM145 106.83C145 122.44 133.85 130.95 118.04 130.95C110.13 130.95 103.04 125.88 103.04 117.77C103.04 109.26 110.54 104.59 118.24 103.99L145 101.96V106.83Z" fill="white"/>
<path d="M49.3003 205.48H42.5703V173.13H49.3003V205.48Z" fill="white"/>
<path d="M70.2407 181.22H76.9707V205.48H70.5007V201.07H70.2507C69.1607 203.91 66.5407 205.79 62.8907 205.79C58.0107 205.79 54.6907 202.33 54.6807 196.66V181.21H61.4107V195.46C61.4307 198.32 63.0707 200.1 65.6107 200.1C68.0307 200.1 70.2507 198.39 70.2407 195.14V181.22Z" fill="white"/>
<path d="M82.4805 173.13H89.2105V185.29H89.4205C90.3205 183.32 92.2605 180.9 96.3205 180.9C101.64 180.9 106.15 185.04 106.15 193.38C106.15 201.5 101.84 205.88 96.3105 205.88C92.3905 205.88 90.3505 203.62 89.4205 201.6H89.1205V205.49H82.4905V173.13H82.4805ZM94.1705 200.52C97.4705 200.52 99.2705 197.58 99.2705 193.35C99.2705 189.15 97.5005 186.26 94.1705 186.26C90.9005 186.26 89.0705 189.03 89.0705 193.35C89.0705 197.68 90.9305 200.52 94.1705 200.52Z" fill="white"/>
<path d="M110.63 181.22H117.15V185.45H117.4C118.28 182.45 120.51 180.87 123.23 180.87C123.91 180.87 124.75 180.97 125.35 181.11V187.08C124.72 186.87 123.44 186.72 122.51 186.72C119.54 186.72 117.36 188.77 117.36 191.76V205.49H110.63V181.22V181.22Z" fill="white"/>
<path d="M128.58 174.68C128.58 172.82 130.22 171.28 132.21 171.28C134.22 171.28 135.86 172.81 135.86 174.68C135.86 176.56 134.22 178.09 132.21 178.09C130.22 178.09 128.58 176.56 128.58 174.68ZM128.83 181.22H135.56V205.48H128.83V181.22Z" fill="white"/>
<path d="M139.96 193.45C139.96 186.01 144.51 180.91 151.87 180.91C158.2 180.91 162.45 184.59 162.74 190.2H156.39C156.03 187.78 154.45 186.16 151.98 186.16C148.85 186.16 146.8 188.78 146.8 193.36C146.8 198 148.84 200.64 151.98 200.64C154.29 200.64 155.99 199.19 156.39 196.6H162.74C162.42 202.18 158.36 205.97 151.9 205.97C144.43 205.96 139.96 200.82 139.96 193.45Z" fill="white"/>
<path d="M165.94 198.71C165.94 193.29 170.25 191.68 175.05 191.24C179.27 190.83 180.93 190.62 180.93 189.06V188.96C180.93 186.97 179.62 185.82 177.33 185.82C174.91 185.82 173.48 187 173.02 188.62L166.8 188.11C167.73 183.69 171.55 180.91 177.37 180.91C182.77 180.91 187.67 183.34 187.67 189.12V205.49H181.29V202.13H181.1C179.92 204.39 177.59 205.95 174.01 205.95C169.37 205.94 165.94 203.51 165.94 198.71ZM180.98 196.81V194.24C180.17 194.78 177.77 195.12 176.3 195.33C173.93 195.66 172.37 196.59 172.37 198.49C172.37 200.34 173.85 201.3 175.92 201.3C178.88 201.3 180.98 199.35 180.98 196.81Z" fill="white"/>
<path d="M199.64 205.48H192.91V181.22H199.32V185.5H199.6C200.69 182.67 203.3 180.9 206.9 180.9C211.95 180.9 215.27 184.37 215.27 190.03V205.48H208.54V191.23C208.56 188.26 206.93 186.49 204.23 186.49C201.51 186.49 199.65 188.32 199.63 191.45V205.48H199.64Z" fill="white"/>
<path d="M233.49 186.28H228.92V198.03C228.92 199.89 229.85 200.4 231.19 200.4C231.82 200.4 232.53 200.24 232.86 200.18L233.92 205.19C233.24 205.41 232.01 205.76 230.27 205.82C225.39 206.03 222.15 203.67 222.18 198.92V186.28H218.86V181.23H222.18V175.42H228.91V181.23H233.48V186.28H233.49Z" fill="white"/>
<path d="M251.571 188.521C251.241 186.961 249.851 185.681 247.511 185.681C245.421 185.681 243.781 186.631 243.801 188.081C243.781 189.251 244.621 190.021 246.881 190.511L251.271 191.391C255.981 192.351 258.271 194.461 258.281 197.961C258.261 202.751 253.761 205.951 247.481 205.951C241.051 205.951 237.101 203.091 236.471 198.451L243.091 198.101C243.501 200.071 245.101 201.101 247.501 201.101C249.851 201.101 251.421 200.071 251.451 198.641C251.421 197.421 250.461 196.651 248.341 196.221L244.141 195.381C239.401 194.431 237.111 192.081 237.131 188.441C237.111 183.761 241.211 180.891 247.411 180.891C253.541 180.891 257.141 183.651 257.741 188.121L251.571 188.521Z" fill="white"/>
</g>
<defs>
<clipPath id="clip0">
<rect width="288.69" height="205.96" fill="white"/>
</clipPath>
</defs>
</svg>
